<?xml version="1.0" encoding="UTF-8"?>
<svg id="Layer_1" data-name="Layer 1" xmlns="http://www.w3.org/2000/svg" viewBox="0 0 512 511">
  <defs>
    <style>
      .cls-1 {
        fill: #0d304e;
      }

      .cls-2 {
        fill: #fefefe;
      }
    </style>
  </defs>
  <path class="cls-1" d="M90.8,37.3l327.69-.29c31.75.53,57.72,22.25,60.55,54.45v330.08c-1.9,27.47-20.74,48.43-47.81,53.18-116.91,2.15-234.55,2.09-351.47.03-26.89-4.99-44.78-26.12-46.79-53.21l.05-331.02c2.5-30.65,27.73-51.82,57.78-53.22ZM392.6,87.4c-60.78-40.09-158.68-27.59-198.02,36.68-18.61,30.4-19.11,62.47-16.81,97.23-6.17,12.3-16.71,25.98-21.95,39-2.11,5.25-3.58,8.92-2.38,14.75,1.74,8.42,3.79,8.49,10.32,11.64,1.14.55,1.18,2.13,1.93,2.28,3.01.63,7.02-.82,10.17,1.15.09,9.44-4.57,18.53,5.04,24.51-6.38,8.11,2.95,13.69,4.04,19.92,1.27,7.27-.86,17.21.15,24.85,1.2,9.09,8.07,18.21,17.5,19.5,8.59,1.17,22.79.3,31.95.13,7.41-.14,14.37-3.78,20.92,3,12.81,13.26,7.03,42.9,9.6,58.4.73,4.42,3.32,6.58,7.7,4.86,3.69-1.44,4.06-9.84,4.28-13.77.92-16.05-2.13-44.73-12.11-57.76-10.77-14.08-44.81-1.17-60.92-7.3-14.26-5.43-5.27-24.17-7.26-34.75-.74-3.92-6.81-10.56-6.81-11.22-.04-3.38,7.05-1.88,6.08-8.96-.65-4.76-9.04-4.73-9.9-7.18-1.26-6.23,5.04-18.2-.16-22.83-5.31-4.72-24.43-.68-21.79-11.78.12-.5,3.39-6.66,4.08-8,6.63-13.04,21.15-30.93,21.79-45.21.36-8.06-1.99-16.32-2.08-24.01-.44-36.16,18.83-75,48.3-94.88,3.56-2.4,11.82-8.25,14.58-9.31,36.87-14.24,78.97-16.23,115.06-.74,58.93,25.29,86.3,91.06,64.12,151.92-8.09,22.2-26.5,41.19-33.51,63.49-11.34,36.05-6.52,74.81,4.77,110.21,1.92,6.03,4.87,20.43,13.05,17.62,5.94-4.92.77-12.03-.83-17.85-7.78-28.42-14.35-56.58-10.38-86.37,4.76-35.68,31.17-57.05,40.59-90.41,15.74-55.73-2.54-116.78-51.12-148.82ZM132.55,110.58c5.29-9.45,5.97-19.79,2.21-29.84-6.1-16.27-17.1-10.03-23.57,1.96-6.27,11.61-3.18,23.09-2.72,35.25-1.03,3.42-8.33,6.67-10.98,9.04-22.31,19.92-24.93,55.3,8.66,63.37,11.54,2.77,16.57-2.42,17.84,12.16,1.01,11.72-.83,20.49-14.23,20.84-6.52.17-.55-2.96.12-3.95,13.66-20.29-19.83-24.91-17.88-2.91.54,6.05,8.74,14.41,14.56,15.44,8.11,1.44,18.01-3.93,21.87-11,5.35-9.81,1.05-19.92.68-30.26.82-2.48,5.95-2.86,7.81-4.25.71-.53,8.13-9.06,8.37-9.67,6.4-16.29-2.92-37.82-22.66-34.89l-1.47-1.53-2.01-15.6c3.95-5.2,10.17-8.39,13.4-14.15ZM318,155v-43.5c0-3.63-5.77-8.09-9.48-8.52-5.99-.7-25.23-.83-30.96.08-1.34.21-9.25,5.3-10.25,6.25-9.25,8.76-17.98,17.88-27.61,26.38-5.07,4.48-12.04,8.36-15.52,14.99-12.3,23.42-.28,64.99,30.38,65.35,3.45.04,6.99-2.17,10.52-.6,1.9,14.59,8.99,20.5,23.39,21.6,8.39.64,19.88.49,25.39-6.68,4.45-5.79,3.53-12.56,5.08-18.92,1.64-1.14,19.25-.74,21.46.67l12.4,12.6.04,14.63c-14.86,9.23-11.35,31.56,8.6,28.59,11.34-1.68,13.43-17.56,6.58-25.17-1.55-1.72-5.22-2.6-5.85-4.43l-.69-20.31c-3.92-2.63-16.5-17.02-19.98-17.02h-22.5l-1-14,29.34,1.17,16.12,16.88c3.17,1.45,8.05,7.28,10.57,8.43,3.29,1.51,8.27-.18,11.82.69,1.72,4.67,4.12,12.49,10.58,9.82l1.04,2c1.45-2.22,5.82-1.02,6.36-1.27.21-.1.27-1.46.87-1.74,2.12-.96,4.47-1.02,5.9-3.37,6.7-10.99-.2-25.73-13.62-23.21-7.08,1.33-8.21,9-17.54,8.49-2.69-.15-5.66-5.28-7.12-7.41,3.43-6.98,11.61-8.93,13.92-16.78,1.91-6.49.88-16.93-.21-23.67,15.31-4.88,12.65-26.76-3.53-28.07-6.83-.56-13.6,5.95-14.39,12.61-.22,1.85-.32,4.02-.03,5.86.85,5.27,7.73,8.33,7.96,9.26.5,2.06.39,16.25.04,18.85-.91,6.83-10.15,8.57-11.07,15.44-2.56,2.01-9.94-11.68-11.69-13.02l-34.35-1.42-.94-10.56h15.5c5.01,0,13.28-7.87,14.27-12.73,1.39-6.83-.04-17.68-.44-24.84,15.77-7.96,10.72-30.1-7.77-27.37-8.67,1.28-12.12,8.06-11.47,16.31.14,1.82,2.66,6.77,3.95,8.04s4.73,2.28,4.98,3.29c.45,1.85.3,20.84-.22,22.59-1.27,4.31-14.61,2.54-18.8,3.7ZM151.62,334.64c3.24-3.86,12.06-19.4,11.4-24.09s-16.47-12.35-20.55-17.53c-11.03-14.04-1.33-25.77,4-39.06.43-1.07,1.03-1.93.09-3.01-18.71-10.38-46.22-9.28-63.51,3.62-3.07,2.29-4.22,5.03-6.53,7.47-.85.89-2.86.78-3.97,2.03-13.66,15.45-14.72,43.38-5.09,60.98,16.04,29.31,61.99,36.01,84.16,9.6ZM155,365c-20.66.54-41.53-.99-62.03.47-4.87,1.82-8.35,5.73-8.99,11.01-2.41,19.98,1.88,44.58-.02,65.07-.72,3.02,4.45,5.46,6.54,5.46h64.5v-82Z"/>
  <path class="cls-2" d="M392.6,87.4c48.58,32.04,66.85,93.08,51.12,148.82-9.42,33.36-35.83,54.73-40.59,90.41-3.97,29.79,2.6,57.94,10.38,86.37,1.59,5.82,6.76,12.92.83,17.85-8.19,2.81-11.13-11.6-13.05-17.62-11.29-35.41-16.11-74.16-4.77-110.21,7.01-22.3,25.42-41.29,33.51-63.49,22.18-60.86-5.19-126.62-64.12-151.92-36.09-15.49-78.19-13.5-115.06.74-2.76,1.07-11.02,6.91-14.58,9.31-29.47,19.88-48.74,58.72-48.3,94.88.09,7.69,2.44,15.95,2.08,24.01-.64,14.28-15.15,32.16-21.79,45.21-.68,1.34-3.96,7.5-4.08,8-2.65,11.1,16.47,7.05,21.79,11.78,5.21,4.63-1.1,16.61.16,22.83.86,2.45,9.25,2.43,9.9,7.18.96,7.08-6.12,5.58-6.08,8.96,0,.66,6.08,7.31,6.81,11.22,1.99,10.58-7,29.32,7.26,34.75,16.11,6.13,50.15-6.78,60.92,7.3,9.97,13.04,13.02,41.71,12.11,57.76-.22,3.92-.59,12.32-4.28,13.77-4.38,1.71-6.97-.45-7.7-4.86-2.57-15.5,3.21-45.14-9.6-58.4-6.55-6.78-13.5-3.14-20.92-3-9.17.17-23.36,1.04-31.95-.13-9.43-1.28-16.3-10.41-17.5-19.5-1.01-7.64,1.12-17.58-.15-24.85-1.09-6.23-10.42-11.8-4.04-19.92-9.6-5.98-4.94-15.07-5.04-24.51-3.15-1.97-7.16-.52-10.17-1.15-.75-.16-.79-1.73-1.93-2.28-6.52-3.15-8.58-3.22-10.32-11.64-1.2-5.83.26-9.49,2.38-14.75,5.24-13.03,15.78-26.71,21.95-39-2.3-34.76-1.8-66.83,16.81-97.23,39.34-64.27,137.24-76.77,198.02-36.68Z"/>
  <path class="cls-2" d="M318,155c4.19-1.17,17.53.61,18.8-3.7.52-1.76.66-20.74.22-22.59-.24-1-3.75-2.08-4.98-3.29-1.29-1.27-3.81-6.22-3.95-8.04-.65-8.25,2.8-15.03,11.47-16.31,18.49-2.73,23.54,19.4,7.77,27.37.4,7.16,1.83,18,.44,24.84-.99,4.86-9.26,12.73-14.27,12.73h-15.5l.94,10.56,34.35,1.42c1.75,1.33,9.13,15.03,11.69,13.02.92-6.87,10.16-8.61,11.07-15.44.35-2.6.46-16.79-.04-18.85-.23-.93-7.11-3.99-7.96-9.26-.29-1.83-.19-4,.03-5.86.79-6.66,7.56-13.17,14.39-12.61,16.18,1.32,18.84,23.19,3.53,28.07,1.09,6.74,2.12,17.18.21,23.67-2.31,7.85-10.49,9.8-13.92,16.78,1.46,2.13,4.43,7.27,7.12,7.41,9.33.51,10.46-7.16,17.54-8.49,13.42-2.52,20.32,12.22,13.62,23.21-1.43,2.35-3.79,2.41-5.9,3.37-.6.27-.66,1.64-.87,1.74-.54.25-4.91-.95-6.36,1.27l-1.04-2c-6.45,2.67-8.85-5.16-10.58-9.82-3.55-.87-8.52.82-11.82-.69-2.51-1.15-7.39-6.99-10.57-8.43l-16.12-16.88-29.34-1.17,1,14h22.5c3.48,0,16.06,14.39,19.98,17.02l.69,20.31c.63,1.83,4.3,2.72,5.85,4.43,6.85,7.61,4.76,23.48-6.58,25.17-19.96,2.96-23.47-19.37-8.6-28.59l-.04-14.63-12.4-12.6c-2.21-1.4-19.82-1.8-21.46-.67-1.55,6.36-.63,13.13-5.08,18.92-5.51,7.18-17.01,7.33-25.39,6.68-14.4-1.11-21.49-7.02-23.39-21.6-3.53-1.58-7.07.64-10.52.6-30.66-.36-42.67-41.94-30.38-65.35,3.48-6.62,10.45-10.51,15.52-14.99,9.62-8.5,18.36-17.62,27.61-26.38,1.01-.95,8.91-6.04,10.25-6.25,5.73-.91,24.97-.78,30.96-.08,3.7.44,9.48,4.89,9.48,8.52v43.5ZM345.99,114.94c0-2.22-1.8-4.02-4.02-4.02s-4.02,1.8-4.02,4.02,1.8,4.02,4.02,4.02,4.02-1.8,4.02-4.02ZM308,113h-28.5c-3.5,2.18-6.33,7.78-8.97,10.03-1.9,1.62-4.35,1.6-6.06,2.94-1.87,1.47-2.94,5.12-4.98,7.02-4.2,3.92-11.58,8.73-16.01,12.99-2.4,2.31-9,8.4-10.33,10.67-4.42,7.55-2.87,30.43,2.83,37.59.89,1.11,9.22,8.61,10.26,9.05,7.65,3.25,22.98-.32,26.31,2.67,4.62,4.14.94,17.01,9.39,19.6,5.65,1.73,26.05,1.94,26.05-7.05v-63.5l-12.9.1c.68,5.71-10.17,11.18-14.62,11.02-1.74-.06-1.42-1.7-2.24-2.05-2.47-1.03-4.58-.6-6.81-3-9.83-10.57-1.03-26.77,12.99-24.98,7.79.99,10.85,8.58,12.31,8.87,2.75.55,9.28.67,11.28-1.46v-30.5ZM377.22,141.2c-2.07,3.63,3.19,9.84,6.83,7.36,2.29-3.73,3.97-10.55-2.47-9.55-.72.11-4.15,1.83-4.36,2.19ZM285.85,153.85c3.45-7.11-.71-9.99-7.4-6.86-1.67,2.04-1.03,4.54.5,6.55l6.89.31ZM401.84,207.17c-6.52-4.04-11.22,7.39-2.24,7.83,5.69.29,4.22-6.61,2.24-7.83ZM360.84,249.18c-6.14-3.76-11.27,7.06-3.87,9.43,6.15,1.97,7.1-7.45,3.87-9.43Z"/>
  <path class="cls-2" d="M151.62,334.64c-22.17,26.41-68.12,19.71-84.16-9.6-9.63-17.59-8.57-45.53,5.09-60.98,1.11-1.25,3.13-1.14,3.97-2.03,2.32-2.44,3.47-5.18,6.53-7.47,17.29-12.9,44.8-14,63.51-3.62.93,1.08.33,1.95-.09,3.01-5.33,13.3-15.03,25.02-4,39.06,4.07,5.18,19.87,12.71,20.55,17.53s-8.16,20.22-11.4,24.09ZM125.44,274.46c2.52-1.9,3.79-2.78,4.34-6.22,2.8-17.39-23.71-13.29-18.23,1.71.44,1.2,5.2,6.41,6.38,6.66,3.49.72,5.21-.41,7.51-2.15ZM83.29,283.72c.66,1.03,5.96,3.9,7.48,4.1,12.46,1.66,18.13-21.42-1.17-18.72-7.21,1.01-9.9,8.99-6.31,14.61ZM76.26,299.26c-.53.44-3.09,6.3-3.23,7.33-1.52,11.2,19.27,15.9,20.05-.1.44-9.1-12.17-11.08-16.81-7.23ZM134.72,308.21c-8.88,2.01-10.27,19.66,2.66,18.75,15.39-1.08,11.27-21.9-2.66-18.75ZM99.73,321.2c-9.18,2-7.22,18.14,4.54,15.61,8.2-1.76,6.85-18.08-4.54-15.61Z"/>
  <path class="cls-1" d="M308,113v30.5c-1.99,2.13-8.53,2.01-11.28,1.46-1.45-.29-4.52-7.87-12.31-8.87-14.02-1.79-22.82,14.41-12.99,24.98,2.23,2.4,4.35,1.97,6.81,3,.82.34.5,1.98,2.24,2.05,4.44.17,15.3-5.31,14.62-11.02l12.9-.1v63.5c0,8.99-20.41,8.78-26.05,7.05-8.45-2.59-4.77-15.46-9.39-19.6-3.33-2.98-18.66.58-26.31-2.67-1.04-.44-9.38-7.93-10.26-9.05-5.71-7.16-7.25-30.03-2.83-37.59,1.33-2.27,7.93-8.37,10.33-10.67,4.43-4.26,11.82-9.07,16.01-12.99,2.03-1.9,3.11-5.55,4.98-7.02,1.71-1.34,4.16-1.32,6.06-2.94,2.64-2.25,5.47-7.85,8.97-10.03h28.5ZM258.5,193c6.85,1.48,18.55-1.1,26,0l1.34-1.66c2.59-15.78-17.04-6.26-25.7-10.49-.3-5.3,2.05-21.36-8.15-16.36-3.6,1.77-2.46,19.22,0,23,.81,1.24,5.25,5.22,6.5,5.5Z"/>
  <path class="cls-1" d="M360.84,249.18c3.24,1.98,2.28,11.41-3.87,9.43-7.41-2.38-2.27-13.19,3.87-9.43Z"/>
  <path class="cls-1" d="M377.22,141.2c.21-.36,3.64-2.08,4.36-2.19,6.44-1.01,4.76,5.82,2.47,9.55-3.65,2.49-8.91-3.73-6.83-7.36Z"/>
  <path class="cls-1" d="M285.85,153.85l-6.89-.31c-1.54-2.01-2.17-4.5-.5-6.55,6.69-3.13,10.85-.25,7.4,6.86Z"/>
  <path class="cls-1" d="M401.84,207.17c1.98,1.22,3.45,8.12-2.24,7.83-8.98-.45-4.27-11.87,2.24-7.83Z"/>
  <circle class="cls-1" cx="341.98" cy="114.94" r="4.02"/>
  <path class="cls-1" d="M83.29,283.72c-3.59-5.62-.91-13.61,6.31-14.61,19.3-2.7,13.63,20.38,1.17,18.72-1.52-.2-6.82-3.07-7.48-4.1Z"/>
  <path class="cls-1" d="M76.26,299.26c4.65-3.85,17.25-1.87,16.81,7.23-.77,16-21.57,11.31-20.05.1.14-1.03,2.7-6.89,3.23-7.33Z"/>
  <path class="cls-1" d="M125.44,274.46c-2.3,1.74-4.02,2.88-7.51,2.15-1.18-.24-5.94-5.46-6.38-6.66-5.47-15,21.03-19.1,18.23-1.71-.55,3.44-1.82,4.31-4.34,6.22Z"/>
  <path class="cls-1" d="M134.72,308.21c13.93-3.15,18.06,17.67,2.66,18.75-12.93.91-11.55-16.74-2.66-18.75Z"/>
  <path class="cls-1" d="M99.73,321.2c11.39-2.48,12.75,13.84,4.54,15.61-11.76,2.53-13.72-13.61-4.54-15.61Z"/>
  <g>
    <path class="cls-2" d="M155,365v82h-64.5c-2.1,0-7.26-2.44-6.54-5.46,1.9-20.49-2.39-45.09.02-65.07.64-5.28,4.12-9.19,8.99-11.01,20.51-1.46,41.38.08,62.03-.47ZM109,427v-49.5c0-.27,1.57-1.03.06-2.03l-13.37.72-1.69,1.31v58.5h51v-61h-25v52.01s-11,0-11,0Z"/>
    <path class="cls-1" d="M109,427h11.01s0-52,0-52h25v61h-51v-58.5l1.69-1.31,13.37-.72c1.51,1-.06,1.76-.06,2.03v49.5Z"/>
  </g>
  <g>
    <path class="cls-2" d="M132.55,110.58c-3.22,5.76-9.45,8.95-13.4,14.15l2.01,15.6,1.47,1.53c19.74-2.94,29.06,18.6,22.66,34.89-.24.61-7.65,9.14-8.37,9.67-1.86,1.39-6.99,1.77-7.81,4.25.37,10.34,4.67,20.44-.68,30.26-3.86,7.08-13.76,12.44-21.87,11-5.82-1.03-14.03-9.39-14.56-15.44-1.95-22,31.54-17.38,17.88,2.91-.67.99-6.64,4.12-.12,3.95,13.4-.35,15.24-9.12,14.23-20.84-1.26-14.58-6.3-9.39-17.84-12.16-33.59-8.07-30.97-43.45-8.66-63.37,2.66-2.37,9.95-5.61,10.98-9.04-.46-12.17-3.54-23.64,2.72-35.25,6.46-11.98,17.47-18.22,23.57-1.96,3.77,10.05,3.09,20.39-2.21,29.84ZM123.62,102.63c2.95-4.67,3.95-10.51,3.23-15.98l-2.37-1.72c-5.59-.43-8.16,10.16-8.51,14.54-.15,1.86-.53,11.52,1.54,11.52l6.12-8.35ZM110.61,131.08c-10.28,6.95-21.64,21.2-19.54,34.36,1.23,7.72,12.28,18.5,19.87,20.11,2.2.47,8.39,1.26,9.63-.49l-4.04-30.1c-1.84-2.99-7.39,4.34-7.98,6.07-1.44,4.22,1.69,13.09-2.06,13.95-1.89.43-5.16-7.94-5.43-9.55-1.98-12.26,2.91-18.29,12.85-24.11-.45-2.25-.22-10.72-3.29-10.24ZM133.66,178.66c8.51-8.58,4.23-27.48-9.66-25.66l3,28.99c.61.68,5.86-2.53,6.66-3.33Z"/>
    <path class="cls-1" d="M110.61,131.08c3.07-.47,2.84,8,3.29,10.24-9.94,5.83-14.83,11.85-12.85,24.11.26,1.62,3.54,9.99,5.43,9.55,3.75-.86.62-9.73,2.06-13.95.59-1.74,6.14-9.07,7.98-6.07l4.04,30.1c-1.25,1.75-7.43.96-9.63.49-7.6-1.61-18.65-12.4-19.87-20.11-2.09-13.16,9.27-27.41,19.54-34.36Z"/>
    <path class="cls-1" d="M133.66,178.66c-.79.8-6.05,4.01-6.66,3.33l-3-28.99c13.89-1.82,18.17,17.08,9.66,25.66Z"/>
    <path class="cls-1" d="M123.62,102.63l-6.12,8.35c-2.06,0-1.69-9.66-1.54-11.52.36-4.37,2.93-14.97,8.51-14.54l2.37,1.72c.72,5.47-.28,11.31-3.23,15.98Z"/>
  </g>
</svg>