<?xml version="1.0" encoding="UTF-8"?>
<svg id="Layer_1" data-name="Layer 1" xmlns="http://www.w3.org/2000/svg" viewBox="0 0 1024 1024">
  <defs>
    <style>
      .cls-1 {
        fill: #edeae5;
      }

      .cls-2 {
        fill: #0c304d;
      }
    </style>
  </defs>
  <path class="cls-1" d="M1024,0v1024H0V0h1024ZM343.8,140.3c-29.79,2.77-53.22,22.98-56.78,53.22.78,114.87-1.65,230.04,1.24,344.73,7.28,27.6,29.12,43.1,57.2,44.8h334.09c32.38-2.12,57.1-25.41,57.51-58.5V195.46c-3.21-31.86-26.96-53.14-58.56-55.45l-334.69.29ZM226,667v-17.5c0-3.92-23.38-9.24-27.46-9.54-39.06-2.85-68.31,21.09-65.58,61.58,3.37,49.87,57.45,62.93,96.04,41.96v-50.5h-41c-.72,4.57,1.38,9.05.15,13.41l1.35,1.59h22.5v24.5c0,4.08-23.88,3.74-27.38,3.38-40-4.16-43.08-68.16-4.47-78.23,10.28-2.68,24.11-1.42,33.85,2.85,1.76.77,11.17,7.44,12,6.5ZM344.73,640.23c-14.9,3.11-8.94,26.15,7.11,21.1,13.35-4.19,7.91-24.24-7.11-21.1ZM453,640h-18v43c-7.74-5.39-9.92-10.68-20.6-11.89-49.45-5.6-55.94,69.33-16.18,80.17,14.25,3.89,26.95.77,36.77-10.28.16,2-.79,11,1.51,11h15l1.5-1.5v-110.5ZM650,667v-17.5c0-.63-7.64-4.59-8.98-5.02-47.14-14.94-91.93,11.09-82.76,63.76,7.93,45.59,59.83,54.43,95.75,35.25v-49l-1.5-1.5h-39.5c.33,2.44-1.06,15,1.5,15h21.5v26c-34.35,8.23-61.07-5.29-58.04-43.54,2.18-27.5,24.42-36.57,49.28-33.21,8.84,1.2,14.86,7.12,22.76,9.74ZM832,640h-18v111h19v-8c22.79,20.39,54.01,7.46,59.74-21.76,6.81-34.67-21.34-64.03-54.63-43.63-2.25,1.38-3.35,4.47-6.11,4.39v-42ZM499.76,671.26c-16.5,2.26-30.27,16.03-32.5,32.5-8.34,61.66,75.94,65.34,79.73,11.73,2.03-28.72-18.65-48.14-47.23-44.23ZM737,743.5v-15.5c-3.7-.1-5.81,3.52-9.08,5.42-18.19,10.53-39.13,5.91-39.92-17.42h55v-15.5c0-12.49-15.64-27.59-27.76-29.24-60.3-8.19-61.45,84.91-4.76,81.73,4.69-.26,25.11-5.05,26.51-9.48ZM804,689v-16.5c0-4.36-16.99.04-20.36,2.64-2.43,1.88-3.68,6.14-7.13,6.87-1.69.04,1.64-10.01-3.01-10.01h-15.5v79h18v-43.5c0-1.15,2.14-7.66,2.82-9.18,4.53-9.96,15.36-11.79,25.18-9.32ZM266,672h-18v57.5c0,.43,1.44,5.28,1.79,6.21,7.29,19.8,39.5,23.67,50.71,5.28l.5,10.01h18v-77.5l-1.5-1.5h-15c-1.1,0-1.43,2.44-1.55,3.45-1.59,13.59,3.71,46.68-3.51,56.49-3.23,4.39-13.41,8.26-18.74,7.02-.72-.17-.75-1.54-1.49-1.88-2.43-1.09-4.4-1.04-6.64-3.17-1.77-1.69-4.58-8.19-4.58-10.42v-51.5ZM358,672h-19.05v80h19.05v-80ZM293,796h-10v73h10.01s0-5,0-5c10.71,10.9,27.29,8.63,35.99-3.51,5.88-8.22,5.47-22.61-.16-30.82-4.92-7.18-19.97-11.5-28.09-8.47-3.55,1.32-4.81,3.92-7.74,5.8v-31ZM353,796h-9v73h9v-73ZM448,796h-9v73h9v-30.5c0-1.06,3.72-6.03,5.04-6.96,6.43-4.51,17.96-2.95,17.96,5.96v31.5h9v-36.5c0-1.06-3.38-7.4-4.45-8.55-6.66-7.11-21.11-4.6-27.55,2.05v-30ZM842.65,806.35c-4.37-4.31-13.11-7.82-19.16-8.34-54-4.65-53.09,76.79-2,72.97,14.84-1.11,25.4-9.3,28.51-23.98l-10.84.15c-4.44,15.36-23.29,15.37-35.38,9.56-7.42-3.57-9.54-20.5-8.52-27.96,2.18-15.96,16.8-23.98,31.76-19.28,8.6,2.7,9.45,9.56,11.96,11.04,1.75,1.04,8.44.74,11.02,1.47,2.13-2.12-5.44-13.76-7.35-15.64ZM182,841h18.5c3.31,0,12.82-4.14,15.4-6.6,8.17-7.78,6.76-26.28-3.85-31.95-1.35-.72-8.61-3.45-9.55-3.45h-30.5v70h10v-28ZM370.24,811.73c2.7,1.31,7.93.19,9.23-2.75,5.57-12.55-16.17-13.96-12.47-.7.06.23,3.03,3.35,3.24,3.45ZM506.27,805.51c0-3.79-3.07-6.86-6.86-6.86s-6.86,3.07-6.86,6.86,3.07,6.86,6.86,6.86,6.86-3.07,6.86-6.86ZM697,799h-11v70h41v-10h-30v-60ZM749,799h-11v70h41v-10h-30v-60ZM415.74,820.22c-1.34-.72-15.55.72-17.49,1.53-5.88,2.44-8.66,11.45-6.81,17.3,3.27,10.28,25.79,8.78,27.4,13.6,4.13,12.37-17.99,10.29-23.36,3.59l-6.47,5.25c7.98,8.56,22.91,12.89,33.32,6.33,5.86-3.7,8.53-12.74,5.44-19.11-5.02-10.35-24.84-7.6-26.61-13.43-3.01-9.92,15.61-8.5,20.35-3.28,2.89-1.63,7.13-3.72,3.42-6.46-2.46-1.82-5.48-2.43-8.24-3.57-.56-.23-.65-1.61-.96-1.77ZM560,869v-33.5c0-5.9-5.35-13.29-11.19-14.82-8.64-2.25-14.82-.2-21.3,5.33l-.5-5.02h-9.01v48.01h10v-30.5c0-.54,2.31-5.3,2.96-6.04,3.06-3.47,10.69-4.65,14.8-2.73,1.29.6,4.24,4.96,4.24,5.76v33.5h10ZM621,867.5c1.69-14.37-1.26-31.79,0-46.5h-9.01s0,7,0,7c-18.17-18.71-44.99-3.5-40.54,22.05,3.1,17.82,27.06,25.07,39.54,11.95.67,16.22-10.95,24.12-25.99,17.5-3.11-1.37-5.79-5.4-8.52-3.58-8.86,5.92-.81,9.68,5.85,12.25,18.05,6.97,36.27-.21,38.68-20.68ZM238,821h-10v33.5c0,.36,1.87,5.9,2.25,6.75,5.44,11.89,22.43,12.5,30.25,2.76l.49,5h10.01v-48.01h-10v32.5c0,3.42-8.75,8.6-12.41,8.44s-10.59-4.75-10.59-8.44v-32.5ZM379,821h-10v48h10v-48ZM504,821h-9v48h9v-48ZM648,856.01c-2.57.35-7.86-1-9.51.98-.8.96-7.36,23.13-6.49,24.01,2.3-.21,5.74.85,7.53-.97,2.38-2.42,6.05-19.75,8.47-24.02Z"/>
  <g>
    <path class="cls-2" d="M650,667c-7.89-2.62-13.91-8.54-22.76-9.74-24.85-3.37-47.09,5.71-49.28,33.21-3.04,38.24,23.69,51.77,58.04,43.54v-26h-21.5c-2.56,0-1.17-12.56-1.5-15h39.5l1.5,1.5v49c-35.91,19.17-87.82,10.33-95.75-35.25-9.16-52.67,35.63-78.71,82.76-63.76,1.34.42,8.98,4.39,8.98,5.02v17.5Z"/>
    <path class="cls-2" d="M226,667c-.83.94-10.24-5.73-12-6.5-9.74-4.27-23.57-5.53-33.85-2.85-38.61,10.07-35.52,74.07,4.47,78.23,3.5.36,27.38.7,27.38-3.38v-24.5h-22.5l-1.35-1.59c1.23-4.36-.87-8.84-.15-13.41h41v50.5c-38.59,20.97-92.67,7.91-96.04-41.96-2.73-40.49,26.51-64.43,65.58-61.58,4.08.3,27.46,5.61,27.46,9.54v17.5Z"/>
    <path class="cls-2" d="M832,640v42c2.76.08,3.87-3.01,6.11-4.39,33.29-20.4,61.44,8.96,54.63,43.63-5.74,29.22-36.95,42.15-59.73,21.76v8h-19.01v-111h18ZM848.74,687.24c-22.27,3.79-22.52,45.67,0,49.53,34.1,5.84,36.36-55.71,0-49.53Z"/>
    <path class="cls-2" d="M453,640v110.5l-1.5,1.5h-15c-2.3,0-1.35-9-1.51-11-9.82,11.05-22.52,14.17-36.77,10.28-39.76-10.84-33.28-85.77,16.18-80.17,10.68,1.21,12.86,6.5,20.6,11.89v-43h18ZM397.36,692.36c-10.69,11.01-8.43,42.36,10.12,44.66,22.66,2.81,31.63-15.5,26.42-35.41-4.26-16.28-25.06-21.06-36.53-9.25Z"/>
    <path class="cls-2" d="M499.76,671.26c28.58-3.91,49.26,15.51,47.23,44.23-3.79,53.61-88.07,49.94-79.73-11.73,2.23-16.47,16-30.24,32.5-32.5ZM500.73,687.23c-21.78,3.93-22.11,51.68,6.62,50.7,2.84-.1,12.89-3.38,14.7-5.38,1.19-1.31,4.98-9.47,5.51-11.49,5.14-19.42-4.73-37.81-26.83-33.83Z"/>
    <path class="cls-2" d="M737,743.5c-1.4,4.44-21.82,9.22-26.51,9.48-56.69,3.18-55.54-89.92,4.76-81.73,12.12,1.65,27.76,16.76,27.76,29.24v15.5h-55c.79,23.32,21.72,27.95,39.92,17.42,3.28-1.9,5.39-5.52,9.08-5.42v15.5ZM726,704c.84-26.58-37.02-25-38,0h38Z"/>
    <path class="cls-2" d="M266,672v51.5c0,2.23,2.81,8.74,4.58,10.42,2.23,2.13,4.21,2.08,6.64,3.17.74.33.77,1.71,1.49,1.88,5.32,1.23,15.5-2.63,18.74-7.02,7.22-9.81,1.92-42.9,3.51-56.49.12-1.01.45-3.45,1.55-3.45h15l1.5,1.5v77.5h-18l-.5-10.01c-11.22,18.39-43.42,14.52-50.71-5.28-.34-.94-1.79-5.78-1.79-6.21v-57.5h18Z"/>
    <path class="cls-2" d="M804,689c-9.82-2.47-20.64-.64-25.18,9.32-.69,1.51-2.82,8.03-2.82,9.18v43.5h-18v-79h15.5c4.65,0,1.32,10.05,3.01,10.01,3.45-.73,4.7-4.99,7.13-6.87,3.37-2.6,20.36-7,20.36-2.64v16.5Z"/>
    <path class="cls-2" d="M621,867.5c-2.41,20.47-20.63,27.65-38.68,20.68-6.66-2.57-14.7-6.33-5.85-12.25,2.73-1.83,5.41,2.2,8.52,3.58,15.04,6.62,26.67-1.29,25.99-17.5-12.48,13.12-36.44,5.87-39.54-11.95-4.45-25.55,22.37-40.76,40.54-22.05v-7s9.01,0,9.01,0c-1.26,14.71,1.69,32.13,0,46.5ZM591.73,829.23c-14.49,3.01-14.88,28.68,1.87,30.69,24.42,2.92,22.62-35.77-1.87-30.69Z"/>
    <path class="cls-2" d="M842.65,806.35c1.91,1.88,9.48,13.52,7.35,15.64-2.57-.73-9.27-.44-11.02-1.47-2.51-1.48-3.36-8.33-11.96-11.04-14.96-4.7-29.58,3.31-31.76,19.28-1.02,7.47,1.1,24.4,8.52,27.96,12.08,5.81,30.93,5.8,35.38-9.56l10.84-.15c-3.11,14.68-13.67,22.86-28.51,23.98-51.1,3.83-52-77.61,2-72.97,6.05.52,14.79,4.03,19.16,8.34Z"/>
    <path class="cls-2" d="M293,796v31c2.93-1.88,4.19-4.48,7.74-5.8,8.12-3.02,23.17,1.3,28.09,8.47,5.63,8.21,6.05,22.61.16,30.82-8.69,12.14-25.27,14.4-35.99,3.51v5.01s-10.01,0-10.01,0v-73h10ZM304.75,829.23c-14.34,2.27-17.96,25.27-2.73,31.25,24.92,9.79,29.8-35.53,2.73-31.25Z"/>
    <path class="cls-2" d="M182,841v28h-10v-70h30.5c.94,0,8.2,2.73,9.55,3.45,10.61,5.67,12.03,24.17,3.85,31.95-2.58,2.46-12.09,6.6-15.4,6.6h-18.5ZM182,831h18.5c.27,0,4.23-1.76,4.85-2.15,5.47-3.4,6.57-11.22,2.19-15.9-1.11-1.18-5.85-3.96-7.04-3.96h-18.5v22Z"/>
    <rect class="cls-2" x="338.95" y="672" width="19.05" height="80"/>
    <path class="cls-2" d="M448,796v30c6.44-6.65,20.88-9.16,27.55-2.05,1.07,1.14,4.45,7.49,4.45,8.55v36.5h-9v-31.5c0-8.91-11.53-10.47-17.96-5.96-1.32.93-5.04,5.9-5.04,6.96v30.5h-9v-73h9Z"/>
    <path class="cls-2" d="M238,821v32.5c0,3.69,6.86,8.28,10.59,8.44s12.41-5.02,12.41-8.44v-32.5h10v48h-10.01s-.49-5-.49-5c-7.82,9.74-24.81,9.13-30.25-2.76-.39-.84-2.25-6.39-2.25-6.75v-33.5h10Z"/>
    <path class="cls-2" d="M560,869h-10v-33.5c0-.8-2.94-5.16-4.24-5.76-4.11-1.92-11.74-.74-14.8,2.73-.65.74-2.96,5.49-2.96,6.04v30.5h-10v-48h9.01s.5,5.01.5,5.01c6.48-5.52,12.67-7.58,21.3-5.33,5.84,1.52,11.19,8.91,11.19,14.82v33.5Z"/>
    <polygon class="cls-2" points="697 799 697 859 727 859 727 869 686 869 686 799 697 799"/>
    <polygon class="cls-2" points="749 799 749 859 779 859 779 869 738 869 738 799 749 799"/>
    <path class="cls-2" d="M415.74,820.22c.3.16.39,1.54.96,1.77,2.76,1.14,5.78,1.75,8.24,3.57,3.71,2.74-.53,4.83-3.42,6.46-4.75-5.22-23.36-6.64-20.35,3.28,1.77,5.83,21.6,3.08,26.61,13.43,3.09,6.37.43,15.41-5.44,19.11-10.4,6.56-25.34,2.23-33.32-6.33l6.47-5.25c5.37,6.71,27.49,8.78,23.36-3.59-1.61-4.82-24.13-3.32-27.4-13.6-1.86-5.85.93-14.86,6.81-17.3,1.94-.81,16.15-2.25,17.49-1.53Z"/>
    <rect class="cls-2" x="344" y="796" width="9" height="73"/>
    <rect class="cls-2" x="369" y="821" width="10" height="48"/>
    <rect class="cls-2" x="495" y="821" width="9" height="48"/>
    <path class="cls-2" d="M344.73,640.23c15.02-3.14,20.46,16.91,7.11,21.1-16.05,5.04-22.02-17.99-7.11-21.1Z"/>
    <path class="cls-2" d="M648,856.01c-2.42,4.27-6.09,21.61-8.47,24.02-1.79,1.82-5.23.76-7.53.97-.88-.89,5.69-23.06,6.49-24.01,1.66-1.98,6.94-.63,9.51-.98Z"/>
    <circle class="cls-2" cx="499.41" cy="805.51" r="6.86"/>
    <path class="cls-2" d="M370.24,811.73c-.21-.1-3.18-3.22-3.24-3.45-3.7-13.25,18.04-11.84,12.47.7-1.3,2.93-6.54,4.06-9.23,2.75Z"/>
    <path class="cls-1" d="M848.74,687.24c36.36-6.18,34.1,55.36,0,49.53-22.52-3.85-22.27-45.74,0-49.53Z"/>
    <path class="cls-1" d="M397.36,692.36c11.47-11.81,32.27-7.03,36.53,9.25,5.22,19.91-3.76,38.23-26.42,35.41-18.55-2.3-20.81-33.66-10.12-44.66Z"/>
    <path class="cls-1" d="M500.73,687.23c22.1-3.99,31.97,14.41,26.83,33.83-.54,2.02-4.32,10.18-5.51,11.49-1.81,2-11.86,5.28-14.7,5.38-28.73.99-28.4-46.77-6.62-50.7Z"/>
    <path class="cls-1" d="M726,704h-38c.98-25,38.84-26.58,38,0Z"/>
    <path class="cls-1" d="M591.73,829.23c24.49-5.08,26.29,33.61,1.87,30.69-16.75-2.01-16.36-27.68-1.87-30.69Z"/>
    <path class="cls-1" d="M304.75,829.23c27.06-4.28,22.19,41.04-2.73,31.25-15.23-5.98-11.6-28.98,2.73-31.25Z"/>
    <path class="cls-1" d="M182,831v-22h18.5c1.19,0,5.93,2.77,7.04,3.96,4.38,4.68,3.28,12.5-2.19,15.9-.63.39-4.59,2.15-4.85,2.15h-18.5Z"/>
    <g>
      <path class="cls-2" d="M343.8,140.3l334.69-.29c31.59,2.31,55.35,23.59,58.55,55.45v329.09c-.4,33.09-25.11,56.38-57.5,58.5h-334.09c-28.08-1.69-49.92-17.2-57.2-44.79-2.89-114.69-.45-229.87-1.24-344.73,3.56-30.23,26.99-50.45,56.78-53.22ZM422.24,380.77c-1.74-1.75-1.39-6.48-.76-8.8,2.25-8.28,14.55-24.99,19.05-33.94,9.71-19.32,3.05-26.25,3.49-45.52,1.21-53.32,38.84-95.86,89.97-107.02,86.26-18.83,168.81,37.23,159,130-4.87,46.09-38.94,70.08-45.74,114.26-4.1,26.64,2.69,75.75,14.01,100.48,1.71,3.73,4.17,6.81,8.45,5.02,7.05-2.94,1.19-12.19-.21-17.27-9.91-36.11-18.49-75.55-3.68-111.67,5.36-13.08,14.69-24.22,21.35-36.65,48.53-90.73-5.65-192.71-108.63-199.71-84.43-5.74-148.94,49.33-145.58,135.58.18,4.54,2.16,10.58,2.08,14.91-.17,9.15-18.86,34.06-23.22,44.87-7.56,18.73,1.81,27.3,20.05,29.81.48,6.26-2.81,13.29.26,19.24.94,1.82,4.46,3.88,4.73,5.27.23,1.2-1.57,3.17-1.83,4.92-1.09,7.39,4.92,9.33,5.91,14.99,1.07,6.08-1.15,12.19-.96,17.9.27,7.92,3.56,17.11,10.08,21.98,8.76,6.55,19.33,4.82,29.45,4.56,7.41-.18,18.39-1.83,25.01-1.03,2.17.26,4.76,1.16,6.4,2.6,5.53,4.87,9.62,26.43,10.12,33.88.53,7.87-1.48,20.71.4,27.63,1.19,4.37,8.76,3.81,10.32-.83,4.94-14.7-1.06-58.27-13.26-69.25-12.95-11.65-42.04.73-58.48-5.52-14.43-5.49-5.03-24.2-7.25-34.76-.77-3.64-6.84-9.71-6.83-11.24,0-2.56,6.68-3.63,5.9-8.76s-6.67-4.41-8.84-6.22c-4.07-3.38,6.71-21.56-3.42-25.59-3.82-1.52-14.62-1.42-17.34-4.15ZM362,328.99c.94-3.86,4.21-4.63,5.73-8.76,4.75-12.89-10.89-18.31-17.74-7.74-7.94,12.26,6.03,24.72,18.51,23.51,8.35-.81,17.23-8.11,18.41-16.59.96-6.94-2.96-20.2-1.76-23.75.25-.75,9.94-6.71,12.36-9.65,10.78-13.13,5.42-35.88-12.09-38.93-2.59-.45-7.32,1.05-8.25-1.75-.5-1.51-2.32-14.52-2.01-15.61.77-2.69,6.03-5.25,7.83-7.23,4.41-4.85,9.29-13.41,10.01-19.99,1.16-10.55-3.25-33.78-17.94-23.94-7.47,5.01-11.63,15.21-12.05,23.95-.3,6.08,3.16,16.43,1.79,20.8-.54,1.73-14.84,11.89-17.78,15.22-24.34,27.61-3.75,60.66,30.88,58.56,3.95,14.9,5.06,33.93-15.9,31.9ZM589.5,260c-3.68,1.01-11.28-.74-15.5,0,2.48-9.96.46-20.47-.04-30.45-.42-8.5,3.45-20.03-9.44-21.57-4.53-.54-30.25-.52-33.27.78-12.16,9.77-23.24,20.75-34.75,31.25-3.33,3.04-8.73,6.07-12.04,9.96-18.21,21.35-6.94,70.05,24.5,70.61,2.99.05,9.92-1.66,12.1-.13.98.69,2.12,8.15,3.38,10.62,8.39,16.4,45.29,14.97,49.12-4,.76-3.77-.35-7.51,1.38-10.62,1.44-1,18.68-.71,20.83.3,2.54,4.06,12.42,9.66,13.21,13.79.35,1.84.36,12.34-.14,13.82-.42,1.25-3.97,3.01-5.37,4.63-7.63,8.79-3.19,23.26,8.99,24.09,18.02,1.23,21.21-21.54,6.52-28.76l-.5-20.28c-3.86-2.78-17.58-18.02-20.98-18.02h-22.5l-1-14c9.84-.56,19.49.87,29.3,1.21l26.74,25.26c2.34,1.56,10.62-.36,11.82.69s1.7,7.46,7.19,9.3c19.46,6.52,28.18-19.87,11.19-26.18-13.58-5.05-15.08,11.26-26.22,6.21-.68-.31-5.74-5.55-5.78-5.97-.2-2.44,11.64-11.64,13.5-16.28,2.01-5.04,1.52-14.11,1.27-19.74-.06-1.24-1.27-4.08-.99-4.45.11-.14,2.37-.5,3.33-1.18,13.98-9.82,5.22-30.47-12.39-25.42-10.64,3.05-11.77,21.7-.94,26.25l-.04,19.78c-.35,1.83-10.11,13.12-11.62,13.45-2.52.55-8.74-10.73-12.07-11.72l-33.35-1.64c-2.42-1.67,1.04-7.74-.94-10.56h15.5c7.64,0,13.85-8.33,14.55-15.45.66-6.71-.07-15.33-.73-22.11,17.01-7.96,8.67-32.81-10.05-26.67-4.73,1.55-9.03,7.85-9.31,12.77-.52,9.34,8.69,12.63,9.06,14.17.48,1.96.4,19.49-.04,21.78-.25,1.33-2.53,4.26-3.48,4.52ZM407.65,439.67c3.26-3.79,9.88-15.82,10.92-20.62,1.84-8.53-9.92-12.06-15.49-16.64-8.17-6.71-11.35-15.06-8.56-25.4,1.41-5.21,6.85-14.4,7.32-18.78.41-3.8-10.25-7.18-13.62-7.97-46.58-10.9-87.86,34.31-64.75,78.75,15.69,30.16,61.64,36.84,84.17,10.65ZM411,470c-3.81-.14-7.68.21-11.49,0-13.09-.73-38.61-3.2-50.53.49-13.41,4.15-8.99,15.84-8.92,25.98.07,11.09-.28,21.89-.02,33,.1,4.13-.96,17.8.86,20.14.41.53,4.16,2.41,4.59,2.41h65.5v-82Z"/>
      <g>
        <path class="cls-1" d="M362,328.99c20.97,2.03,19.85-17,15.9-31.9-34.63,2.1-55.22-30.96-30.88-58.56,2.93-3.33,17.24-13.49,17.78-15.22,1.37-4.38-2.09-14.72-1.79-20.8.43-8.73,4.59-18.94,12.05-23.95,14.68-9.84,19.1,13.39,17.94,23.94-.72,6.57-5.6,15.13-10.01,19.99-1.8,1.98-7.07,4.54-7.83,7.23-.31,1.09,1.51,14.1,2.01,15.61.93,2.8,5.66,1.3,8.25,1.75,17.51,3.04,22.88,25.8,12.09,38.93-2.41,2.94-12.1,8.9-12.36,9.65-1.2,3.55,2.72,16.82,1.76,23.75-1.18,8.48-10.06,15.78-18.41,16.59-12.48,1.21-26.45-11.25-18.51-23.51,6.85-10.57,22.49-5.15,17.74,7.74-1.52,4.12-4.79,4.9-5.73,8.76ZM379.67,189.13c-3.45.95-6.65,8.46-7.22,11.82-.4,2.31-1.45,15.07,1.05,15.03,2.72-.03,9.95-15.46,10.28-18.77.28-2.75-.21-9.16-4.11-8.08ZM367.99,236c-10.3,4.56-21.65,20.04-21.01,31.46.55,9.61,10.68,21.13,19.96,23.09,2.2.47,8.39,1.26,9.63-.49,1.4-1.97-4.28-25.52-4.04-30.1-2.06-3.34-7.47,4.83-8.06,7-1,3.67,1.14,11.07.46,11.96-2.94,3.86-7.48-6.02-7.87-8.49-1.49-9.38,2.81-20.77,12.9-22.48l-1.97-11.95ZM383.01,288c15.08-4.56,15.08-31.23-3-29.99l3,29.99Z"/>
        <path class="cls-2" d="M367.99,236l1.97,11.95c-10.1,1.71-14.39,13.1-12.9,22.48.39,2.47,4.94,12.35,7.87,8.49.68-.89-1.46-8.29-.46-11.96.59-2.17,6-10.34,8.06-7-.24,4.58,5.44,28.13,4.04,30.1-1.24,1.75-7.43.96-9.63.49-9.28-1.97-19.41-13.48-19.96-23.09-.65-11.42,10.71-26.9,21.01-31.46Z"/>
        <path class="cls-2" d="M383.01,288l-3-29.99c18.08-1.24,18.08,25.43,3,29.99Z"/>
        <path class="cls-2" d="M379.67,189.13c3.9-1.08,4.39,5.33,4.11,8.08-.33,3.31-7.57,18.74-10.28,18.77-2.51.03-1.45-12.72-1.05-15.03.57-3.36,3.77-10.87,7.22-11.82Z"/>
      </g>
      <g>
        <path class="cls-1" d="M411,470v82h-65.5c-.44,0-4.18-1.88-4.59-2.41-1.82-2.34-.77-16.01-.86-20.14-.26-11.11.1-21.91.02-33-.07-10.14-4.49-21.83,8.92-25.98,11.92-3.68,37.44-1.22,50.53-.49,3.81.21,7.68-.13,11.49,0ZM350,482.5v58.5h51v-61h-26v52h-9.01s-.43-51.06-.43-51.06c-1.54-2.2-15.03-.12-15.56,1.56Z"/>
        <path class="cls-2" d="M350,482.5c.53-1.68,14.02-3.76,15.56-1.56l.43,51.07h9.01v-52.01h26v61h-51v-58.5Z"/>
      </g>
      <g>
        <path class="cls-1" d="M422.24,380.77c2.72,2.73,13.53,2.63,17.34,4.15,10.12,4.03-.65,22.21,3.42,25.59,2.17,1.8,8.09,1.28,8.84,6.22s-5.89,6.2-5.9,8.76c0,1.52,6.07,7.59,6.83,11.24,2.22,10.56-7.18,29.27,7.25,34.76,16.43,6.25,45.53-6.13,58.48,5.52,12.21,10.98,18.2,54.56,13.26,69.25-1.56,4.64-9.13,5.2-10.32.83-1.88-6.92.13-19.76-.4-27.63-.5-7.45-4.59-29.02-10.12-33.88-1.64-1.44-4.23-2.34-6.4-2.6-6.62-.81-17.6.84-25.01,1.03-10.12.25-20.69,1.98-29.45-4.56-6.51-4.87-9.8-14.05-10.08-21.98-.2-5.71,2.02-11.82.96-17.9-.99-5.66-7.01-7.6-5.91-14.99.26-1.76,2.05-3.72,1.83-4.92-.26-1.39-3.79-3.45-4.73-5.27-3.07-5.95.21-12.98-.26-19.24-18.24-2.52-27.6-11.08-20.05-29.81,4.36-10.81,23.05-35.72,23.22-44.87.08-4.33-1.9-10.37-2.08-14.91-3.36-86.25,61.15-141.32,145.58-135.58,102.98,7,157.16,108.99,108.63,199.71-6.65,12.44-15.98,23.57-21.35,36.65-14.81,36.12-6.23,75.56,3.68,111.67,1.39,5.08,7.25,14.33.21,17.27-4.28,1.78-6.74-1.29-8.45-5.02-11.32-24.73-18.11-73.84-14.01-100.48,6.79-44.18,40.87-68.17,45.74-114.26,9.8-92.77-72.74-148.83-159-130-51.13,11.16-88.77,53.69-89.97,107.02-.44,19.27,6.22,26.2-3.49,45.52-4.5,8.96-16.8,25.66-19.05,33.94-.63,2.32-.98,7.05.76,8.8Z"/>
        <g>
          <path class="cls-1" d="M589.5,260c.95-.26,3.23-3.19,3.48-4.52.44-2.28.52-19.81.04-21.78-.37-1.53-9.59-4.83-9.06-14.17.28-4.92,4.58-11.21,9.31-12.77,18.72-6.14,27.07,18.7,10.05,26.67.66,6.78,1.39,15.4.73,22.11-.7,7.12-6.91,15.45-14.55,15.45h-15.5c1.99,2.82-1.48,8.89.94,10.56l33.35,1.64c3.32.99,9.54,12.27,12.07,11.72,1.51-.33,11.27-11.61,11.62-13.45l.04-19.78c-10.83-4.55-9.7-23.19.94-26.25,17.61-5.05,26.37,15.6,12.39,25.42-.96.68-3.23,1.04-3.33,1.18-.28.36.94,3.21.99,4.45.25,5.63.75,14.7-1.27,19.74-1.85,4.64-13.7,13.84-13.5,16.28.03.41,5.09,5.66,5.78,5.97,11.15,5.05,12.65-11.26,26.22-6.21,16.98,6.31,8.27,32.7-11.19,26.18-5.49-1.84-6.01-8.27-7.19-9.3s-9.48.87-11.82-.69l-26.74-25.26c-9.81-.34-19.46-1.77-29.3-1.21l1,14h22.5c3.41,0,17.13,15.23,20.98,18.02l.5,20.28c14.69,7.22,11.5,29.99-6.52,28.76-12.18-.83-16.62-15.3-8.99-24.09,1.4-1.61,4.95-3.38,5.37-4.63.5-1.48.49-11.98.14-13.82-.79-4.13-10.67-9.73-13.21-13.79-2.15-1.01-19.39-1.3-20.83-.3-1.73,3.11-.62,6.85-1.38,10.62-3.83,18.97-40.73,20.4-49.12,4-1.26-2.47-2.4-9.93-3.38-10.62-2.19-1.53-9.11.18-12.1.13-31.44-.56-42.71-49.26-24.5-70.61,3.31-3.88,8.72-6.92,12.04-9.96,11.51-10.5,22.59-21.47,34.75-31.25,3.02-1.3,28.74-1.32,33.27-.78,12.89,1.54,9.02,13.07,9.44,21.57.49,9.98,2.52,20.5.04,30.45,4.22-.74,11.82,1.01,15.5,0ZM601.85,216.15c-5.07-3.19-12.02,4.94-4.82,8.4,4.16,2,8.14-6.31,4.82-8.4ZM564,218h-28.5c-.81,0-9.68,9.87-11.49,11.51-8.15,7.42-17.12,14.33-25.03,21.97-5.8,5.6-11.27,9.34-12.03,17.97-1.27,14.38.16,31.39,14.81,38.27,8.65,4.07,13.68,1.3,21.76,1.44,11.63.2,4.48,18.26,14.42,21.38,2.66.83,15.6.93,18.51.4,2.11-.39,7.55-4.53,7.55-6.45v-64.5l-12.34-.04c-5.87,15.19-27.67,11.99-27.74-4.46s21.66-20.51,27.75-5.46l12.34-.04v-32ZM642.93,248.5c0-2.53-2.05-4.57-4.57-4.57s-4.57,2.05-4.57,4.57,2.05,4.57,4.57,4.57,4.57-2.05,4.57-4.57ZM542.97,255.25c0-2.62-2.13-4.75-4.75-4.75s-4.75,2.13-4.75,4.75,2.13,4.75,4.75,4.75,4.75-2.13,4.75-4.75ZM659.84,315.74c0-2.6-2.11-4.71-4.71-4.71s-4.71,2.11-4.71,4.71,2.11,4.71,4.71,4.71,4.71-2.11,4.71-4.71ZM618.86,359.01c0-2.62-2.13-4.75-4.75-4.75s-4.75,2.13-4.75,4.75,2.13,4.75,4.75,4.75,4.75-2.13,4.75-4.75Z"/>
          <path class="cls-2" d="M564,218v32l-12.34.04c-6.08-15.05-27.82-10.75-27.75,5.46s21.88,19.65,27.74,4.46l12.34.04v64.5c0,1.92-5.44,6.07-7.55,6.45-2.9.53-15.85.43-18.51-.4-9.94-3.12-2.79-21.18-14.42-21.38-8.07-.14-13.1,2.63-21.76-1.44-14.65-6.89-16.08-23.89-14.81-38.27.76-8.63,6.22-12.37,12.03-17.97,7.91-7.64,16.88-14.55,25.03-21.97,1.81-1.65,10.67-11.51,11.49-11.51h28.5ZM509.72,269.15c-5.62,1.53-4.49,18.57-2.14,22.77.86,1.54,4.71,5.11,6.36,5.64,3.16,1,18.68.91,22.57.46,4.59-.52,6.72-2.44,5.28-7.31-2.07-6.97-19.12-2.06-24.86-4.15-2.61-1.82,2.34-20.01-7.21-17.42Z"/>
          <circle class="cls-2" cx="614.11" cy="359.01" r="4.75"/>
          <circle class="cls-2" cx="538.22" cy="255.25" r="4.75"/>
          <circle class="cls-2" cx="655.13" cy="315.74" r="4.71"/>
          <circle class="cls-2" cx="638.36" cy="248.5" r="4.57"/>
          <path class="cls-2" d="M601.85,216.15c3.32,2.09-.66,10.4-4.82,8.4-7.2-3.46-.25-11.59,4.82-8.4Z"/>
          <path class="cls-1" d="M509.72,269.15c9.56-2.59,4.6,15.6,7.21,17.42,5.74,2.09,22.79-2.82,24.86,4.15,1.45,4.87-.68,6.78-5.28,7.31-3.9.44-19.41.54-22.57-.46-1.65-.52-5.5-4.1-6.36-5.64-2.35-4.21-3.48-21.25,2.14-22.77Z"/>
        </g>
        <g>
          <path class="cls-1" d="M407.65,439.67c-22.53,26.19-68.48,19.51-84.17-10.65-23.11-44.44,18.17-89.65,64.75-78.75,3.37.79,14.03,4.18,13.62,7.97-.48,4.37-5.91,13.57-7.32,18.78-2.8,10.34.39,18.69,8.56,25.4,5.57,4.58,17.33,8.11,15.49,16.64-1.04,4.8-7.66,16.83-10.92,20.62ZM383.66,378.66c6.63-6.76.09-19.07-8.03-17.71-.68.11-.51,1.85-1.26,2-2.58.52-5.31-1.06-6.91,4-3.84,12.14,9.17,18.88,16.21,11.71ZM350.72,373.3c-6.27-.07-11.78,1.1-12.69,8.29-.99,7.76,7.69,13.95,14.89,9.82,8.2-4.71,5.64-18.02-2.2-18.11ZM349.19,411.86c0-5.6-4.54-10.14-10.14-10.14s-10.14,4.54-10.14,10.14,4.54,10.14,10.14,10.14,10.14-4.54,10.14-10.14ZM403.42,422.88c0-5.45-4.42-9.87-9.87-9.87s-9.87,4.42-9.87,9.87,4.42,9.87,9.87,9.87,9.87-4.42,9.87-9.87ZM366.14,433.95c0-4.51-3.66-8.16-8.16-8.16s-8.16,3.66-8.16,8.16,3.66,8.16,8.16,8.16,8.16-3.66,8.16-8.16Z"/>
          <circle class="cls-2" cx="339.06" cy="411.86" r="10.14"/>
          <path class="cls-2" d="M383.66,378.66c-7.04,7.17-20.04.43-16.21-11.71,1.6-5.07,4.33-3.49,6.91-4,.76-.15.58-1.88,1.26-2,8.12-1.36,14.66,10.95,8.03,17.71Z"/>
          <path class="cls-2" d="M350.72,373.3c7.84.09,10.41,13.4,2.2,18.11-7.2,4.13-15.88-2.06-14.89-9.82.91-7.19,6.42-8.36,12.69-8.29Z"/>
          <circle class="cls-2" cx="393.55" cy="422.88" r="9.87"/>
          <circle class="cls-2" cx="357.98" cy="433.95" r="8.16"/>
        </g>
      </g>
    </g>
  </g>
</svg>