<svg width="480" height="360" viewBox="0 0 480 360" fill="none" xmlns="http://www.w3.org/2000/svg" role="img" aria-labelledby="title desc">
  <title id="title">Community storytellers illustration</title>
  <desc id="desc">Abstract illustration of neighbors sharing stories inside a circular gathering space.</desc>
  <defs>
    <linearGradient id="bg" x1="40" y1="24" x2="440" y2="336" gradientUnits="userSpaceOnUse">
      <stop stop-color="#F5EDFF" />
      <stop offset="0.5" stop-color="#FDF3FF" />
      <stop offset="1" stop-color="#FFEAF2" />
    </linearGradient>
    <linearGradient id="ring" x1="240" y1="40" x2="240" y2="320" gradientUnits="userSpaceOnUse">
      <stop stop-color="#7258F2" stop-opacity="0.85" />
      <stop offset="1" stop-color="#FF7BB8" stop-opacity="0.8" />
    </linearGradient>
    <radialGradient id="glow" cx="0" cy="0" r="1" gradientUnits="userSpaceOnUse" gradientTransform="translate(240 180) scale(160 110)">
      <stop stop-color="#FFFFFF" stop-opacity="0.95" />
      <stop offset="1" stop-color="#E4D9FF" stop-opacity="0.4" />
    </radialGradient>
    <linearGradient id="figureA" x1="140" y1="92" x2="190" y2="200" gradientUnits="userSpaceOnUse">
      <stop stop-color="#7C5CF7" />
      <stop offset="1" stop-color="#A88BFF" />
    </linearGradient>
    <linearGradient id="figureB" x1="320" y1="96" x2="360" y2="210" gradientUnits="userSpaceOnUse">
      <stop stop-color="#F7709A" />
      <stop offset="1" stop-color="#FF9DC9" />
    </linearGradient>
    <linearGradient id="figureC" x1="220" y1="140" x2="270" y2="260" gradientUnits="userSpaceOnUse">
      <stop stop-color="#40C3D9" />
      <stop offset="1" stop-color="#7BE1F9" />
    </linearGradient>
  </defs>
  <rect x="24" y="18" width="432" height="324" rx="48" fill="url(#bg)" />
  <ellipse cx="240" cy="180" rx="200" ry="138" fill="url(#glow)" />
  <ellipse cx="240" cy="182" rx="182" ry="124" stroke="url(#ring)" stroke-width="12" fill="none" />
  <g opacity="0.75">
    <path d="M120 230C140 246 180 254 210 254C242 254 274 240 300 220" stroke="#D6C8FF" stroke-width="10" stroke-linecap="round" />
    <path d="M276 262C298 270 324 270 346 262" stroke="#F2C1DA" stroke-width="10" stroke-linecap="round" />
    <path d="M150 206C164 198 180 194 198 194" stroke="#C9B6FF" stroke-width="10" stroke-linecap="round" />
  </g>
  <g>
    <circle cx="168" cy="132" r="38" fill="url(#figureA)" />
    <path d="M150 178C145 198 150 226 186 226C222 226 226 198 220 178C212 152 198 144 186 144C174 144 158 152 150 178Z" fill="url(#figureA)" />
    <circle cx="166" cy="124" r="12" fill="#F9F6FF" />
    <circle cx="180" cy="130" r="10" fill="#F9F6FF" />
    <path d="M162 166C172 174 182 174 192 166" stroke="#F9F6FF" stroke-width="6" stroke-linecap="round" />
  </g>
  <g>
    <circle cx="334" cy="142" r="36" fill="url(#figureB)" />
    <path d="M314 182C308 200 312 224 340 226C364 228 378 208 374 184C370 160 356 148 344 148C332 148 320 158 314 182Z" fill="url(#figureB)" />
    <circle cx="328" cy="134" r="10" fill="#FFF5FB" />
    <circle cx="342" cy="140" r="10" fill="#FFF5FB" />
    <path d="M326 174C334 180 344 180 352 174" stroke="#FFF5FB" stroke-width="6" stroke-linecap="round" />
  </g>
  <g>
    <circle cx="232" cy="188" r="42" fill="url(#figureC)" />
    <path d="M206 238C200 262 210 292 242 292C276 292 288 262 282 236C274 208 254 200 240 200C226 200 214 208 206 238Z" fill="url(#figureC)" />
    <circle cx="222" cy="178" r="12" fill="#F7FDFF" />
    <circle cx="242" cy="182" r="12" fill="#F7FDFF" />
    <path d="M222 216C232 224 244 224 254 216" stroke="#F7FDFF" stroke-width="7" stroke-linecap="round" />
  </g>
  <g opacity="0.55">
    <path d="M102 110C90 120 80 138 82 156" stroke="#C9B6FF" stroke-width="6" stroke-linecap="round" />
    <path d="M362 244C370 260 386 272 404 272" stroke="#F2C1DA" stroke-width="8" stroke-linecap="round" />
    <path d="M276 104C288 94 308 86 328 90" stroke="#C9F1FF" stroke-width="6" stroke-linecap="round" />
  </g>
</svg>
